<?xml version="1.0" standalone="no"?>
<!DOCTYPE svg PUBLIC "-//W3C//DTD SVG 20010904//EN"
 "http://www.w3.org/TR/2001/REC-SVG-20010904/DTD/svg10.dtd">
<svg version="1.0" xmlns="http://www.w3.org/2000/svg"
 width="2000.000000pt" height="2000.000000pt" viewBox="0 0 2000.000000 2000.000000"
 preserveAspectRatio="xMidYMid meet">

<g transform="translate(0.000000,2000.000000) scale(0.100000,-0.100000)"
fill="#000000" stroke="none">
<path d="M3670 17900 c-89 -14 -150 -51 -180 -110 -20 -39 -20 -84 -20 -6679
0 -6178 1 -6644 17 -6683 32 -84 125 -183 210 -223 l52 -25 6650 0 6651 0 -2
6863 -3 6862 -6665 1 c-3666 1 -6685 -2 -6710 -6z m13108 -6856 l2 -6592 -22
-6 c-39 -10 -12914 -7 -12941 3 -14 6 -37 22 -51 38 l-26 28 0 6557 c0 5236 3
6557 13 6561 6 3 2939 5 6517 4 l6505 -2 3 -6591z"/>
<path d="M6425 15290 c-356 -6 -473 -17 -507 -48 -24 -20 -24 -92 0 -122 21
-26 130 -44 337 -55 133 -7 268 -28 381 -59 140 -39 247 -120 301 -228 82
-165 100 -337 114 -1073 14 -792 22 -5194 11 -5805 -10 -494 -10 -495 -40
-635 -47 -221 -99 -325 -194 -387 -98 -63 -168 -86 -378 -122 -81 -14 -159
-24 -365 -46 -49 -6 -103 -15 -119 -22 -25 -10 -28 -15 -22 -47 7 -46 35 -82
72 -95 37 -12 928 -13 3019 -3 1878 9 1981 13 2465 91 690 112 1177 329 1655
735 115 98 294 274 381 376 413 479 613 904 753 1595 89 441 104 648 105 1485
1 706 3 685 -92 1120 -81 368 -178 697 -262 880 -5 11 -19 45 -31 75 -57 139
-237 478 -321 605 -122 184 -273 375 -453 575 -160 179 -536 475 -802 633
-527 313 -1135 475 -2053 547 -263 21 -3190 43 -3955 30z m2787 -256 c132 -22
215 -237 155 -404 -29 -83 -56 -96 -123 -60 -25 13 -55 35 -67 49 -111 131
-307 149 -431 40 -63 -56 -79 -88 -70 -147 14 -100 49 -150 129 -188 60 -28
67 -29 112 -8 73 35 103 124 66 201 -24 51 -51 60 -102 33 -58 -29 -105 -24
-109 11 -5 39 52 85 117 94 59 8 136 0 203 -21 76 -24 133 -100 169 -224 22
-76 24 -126 5 -195 -29 -108 -82 -176 -171 -217 -43 -20 -66 -23 -165 -23
-107 0 -121 2 -200 34 -202 81 -361 233 -407 390 -42 145 27 358 160 493 82
83 166 123 292 141 49 7 397 7 437 1z m-1022 -43 c0 -21 -43 -59 -95 -86 -41
-20 -99 -70 -206 -176 -147 -146 -218 -235 -314 -389 -29 -46 -57 -80 -66 -80
-25 0 -69 49 -96 106 -30 65 -43 193 -28 261 35 149 161 264 360 327 97 31
445 60 445 37z m3228 -35 c297 -107 277 -98 492 -217 160 -88 287 -175 333
-229 41 -49 101 -165 127 -247 10 -34 24 -107 31 -161 11 -85 10 -111 -3 -180
-35 -177 -151 -319 -304 -373 -87 -30 -217 -29 -306 4 -261 95 -419 307 -421
562 -2 194 89 349 247 421 124 57 233 36 338 -64 63 -60 114 -148 103 -181 -5
-17 -14 -19 -80 -18 -69 2 -76 0 -102 -25 -50 -50 -28 -137 45 -180 24 -14 33
-14 75 -1 119 35 162 222 83 357 -35 59 -117 133 -181 162 -109 50 -242 50
-351 0 -31 -14 -60 -24 -64 -21 -4 2 -10 31 -13 64 -7 80 -54 165 -139 255
-37 39 -68 79 -68 90 0 17 5 18 46 12 25 -3 76 -17 112 -30z m-213 -27 c65
-34 115 -89 154 -170 53 -106 66 -178 52 -266 -7 -38 -17 -78 -24 -90 -7 -11
-21 -36 -31 -54 -11 -19 -28 -77 -38 -129 -10 -51 -24 -101 -33 -109 -13 -13
-16 -10 -30 25 -26 65 -48 105 -93 167 -51 69 -105 173 -100 189 3 7 31 28 64
48 73 45 88 82 58 145 -24 50 -62 73 -101 59 -26 -9 -28 -13 -33 -81 -3 -40
-10 -77 -16 -84 -20 -19 -51 -1 -83 48 -26 38 -31 57 -31 104 0 67 25 132 66
171 54 49 153 62 219 27z m-1165 -19 c91 -5 202 -17 248 -25 351 -67 710 -443
925 -970 67 -163 106 -299 192 -660 45 -187 117 -558 151 -780 7 -49 16 -100
19 -112 5 -22 23 -192 50 -473 62 -639 72 -1529 24 -2120 -45 -568 -153 -1216
-264 -1590 -7 -25 -23 -79 -35 -120 -31 -106 -110 -349 -126 -385 -7 -16 -25
-59 -40 -95 -94 -229 -204 -373 -366 -479 -244 -160 -512 -231 -866 -231 -258
1 -288 27 -327 295 -41 285 -45 524 -58 3025 -17 3489 -14 3955 28 4334 33
289 72 364 202 386 67 11 60 11 243 0z m-1882 -98 c-158 -168 -257 -334 -329
-553 -85 -260 -76 -493 27 -666 20 -33 54 -84 74 -111 21 -28 36 -53 33 -56
-4 -3 -46 -6 -95 -6 -63 0 -106 6 -150 21 -33 11 -70 19 -82 17 -19 -3 -21 -9
-19 -73 5 -183 168 -550 317 -714 96 -105 282 -217 421 -254 282 -75 496 -30
578 121 39 73 61 193 46 252 -25 96 -78 161 -164 202 -40 18 -67 23 -136 23
-78 0 -89 -2 -128 -29 -83 -58 -131 -160 -101 -217 14 -26 69 -78 84 -79 5 0
6 24 2 54 -5 45 -3 58 15 80 44 56 159 19 159 -51 0 -40 -23 -69 -83 -103 -67
-38 -110 -39 -169 -1 -64 41 -83 72 -83 140 0 99 73 202 182 256 45 23 68 28
126 28 90 0 142 -14 204 -57 96 -66 135 -156 136 -311 1 -181 -50 -265 -225
-371 l-93 -56 -92 6 c-247 15 -493 120 -686 293 -71 64 -138 115 -144 109 -2
-2 5 -19 17 -38 22 -39 80 -203 110 -313 39 -149 63 -304 58 -388 -14 -244
-204 -444 -377 -397 -55 15 -139 96 -171 165 -27 62 -37 163 -20 205 17 41 72
88 114 95 45 9 86 -13 130 -71 85 -110 62 -190 -49 -170 -63 12 -91 67 -62
119 21 35 21 51 2 67 -12 10 -20 7 -44 -17 -45 -45 -49 -91 -17 -171 43 -106
77 -135 174 -148 66 -8 93 -1 138 38 155 137 151 325 -21 923 -79 272 -83 286
-130 435 -113 364 -149 555 -149 805 l-1 190 34 89 c84 226 399 582 671 758
47 30 32 -2 -32 -70z m47 -109 c-4 -21 -13 -49 -21 -64 -50 -97 -88 -281 -89
-424 0 -131 18 -210 77 -330 79 -161 244 -320 393 -377 29 -11 68 -33 86 -48
33 -27 33 -28 16 -53 -35 -54 -230 -95 -385 -81 -69 6 -81 11 -161 64 -146 96
-222 186 -274 323 -28 76 -30 91 -31 217 0 139 10 196 55 320 58 157 119 260
241 408 77 92 105 105 93 45z m15 -177 c0 -22 53 -240 65 -270 25 -58 161
-188 231 -220 33 -15 88 -42 124 -60 106 -55 162 -69 269 -68 79 0 113 6 191
31 l95 30 25 -24 c33 -32 60 -107 60 -168 0 -61 -35 -136 -92 -198 -60 -64
-96 -86 -169 -105 -125 -32 -258 -1 -489 117 -155 78 -207 121 -261 215 -97
166 -124 278 -109 454 9 107 40 270 52 270 5 0 8 -2 8 -4z m4370 -339 c0 -19
-10 -27 -25 -20 -17 6 -8 33 11 33 8 0 14 -6 14 -13z m286 -159 c286 -299 514
-734 579 -1105 48 -275 -15 -553 -157 -690 -108 -105 -231 -154 -331 -133 -67
14 -121 47 -125 79 -3 15 11 42 42 81 104 132 186 330 232 560 27 132 25 342
-4 450 -57 208 -105 336 -199 530 -36 74 -77 160 -91 190 -15 30 -36 71 -49
91 -46 77 3 51 103 -53z m-235 45 c66 -88 138 -347 158 -568 11 -119 1 -368
-19 -470 -46 -238 -131 -407 -271 -541 -116 -109 -223 -155 -362 -155 -76 0
-97 3 -144 27 -71 34 -113 96 -113 164 l0 46 58 12 c124 26 373 169 448 259
123 145 199 333 225 555 22 186 12 574 -18 696 -8 32 -1 28 38 -25z m-171
-268 c-13 -116 -22 -156 -57 -245 -38 -97 -101 -197 -168 -269 -33 -35 -51
-59 -40 -53 28 14 114 107 152 162 109 160 170 342 196 585 l3 30 18 -40 c25
-54 33 -303 16 -486 -11 -121 -37 -265 -59 -322 -55 -142 -105 -228 -178 -308
-62 -66 -168 -143 -246 -177 -27 -12 -86 -27 -132 -34 -74 -10 -93 -10 -161 6
-62 15 -83 25 -113 55 -76 76 -94 218 -42 328 16 34 38 66 49 72 12 6 70 10
138 9 88 -2 127 1 150 12 29 14 21 15 -115 15 -140 0 -149 1 -203 28 -111 54
-149 129 -128 252 18 110 26 120 91 119 41 -1 71 -10 129 -40 72 -36 79 -38
175 -38 92 -1 104 1 158 29 116 61 248 199 302 317 14 32 33 92 41 135 9 43
18 85 22 93 12 27 14 -133 2 -235z m351 77 c65 -100 115 -210 169 -367 155
-455 130 -817 -80 -1143 -97 -152 -208 -227 -335 -227 -57 1 -79 6 -110 25
-62 38 -160 119 -160 133 0 6 25 26 55 44 193 113 306 246 397 469 64 157 83
256 90 459 7 214 -3 301 -58 511 -57 219 -53 229 32 96z m409 -174 c19 -24 55
-65 81 -93 55 -58 81 -93 204 -275 109 -161 166 -261 224 -393 102 -234 115
-307 109 -624 -4 -213 -6 -233 -31 -308 -41 -124 -117 -242 -236 -367 -284
-297 -618 -472 -942 -493 -175 -12 -282 27 -402 148 -93 93 -130 171 -135 284
-4 71 -1 89 21 135 34 73 88 131 149 162 43 22 66 26 133 26 196 0 293 -75
302 -234 5 -81 -10 -114 -70 -160 -71 -54 -133 -43 -221 38 -56 52 -60 84 -17
127 34 34 69 37 102 10 20 -16 22 -26 21 -85 -2 -60 0 -66 18 -66 11 0 40 19
65 43 43 41 45 46 45 99 0 75 -27 114 -104 152 -78 37 -151 38 -227 2 -67 -31
-111 -70 -135 -116 -19 -38 -31 -166 -20 -222 7 -41 132 -186 196 -229 116
-78 298 -88 500 -27 266 80 546 283 747 543 105 137 172 314 194 514 15 146
-4 328 -34 318 -7 -2 -19 -24 -27 -50 -31 -97 -191 -208 -252 -176 -17 9 -19
17 -13 56 3 24 13 63 21 86 21 57 28 206 16 297 -13 89 -56 240 -105 371 -34
91 -58 148 -164 384 -75 167 -79 207 -13 123z m-4815 -1923 c83 -21 212 -86
268 -135 101 -89 147 -214 147 -398 0 -251 -59 -388 -263 -610 -42 -46 -77
-88 -77 -93 0 -14 35 -26 130 -44 222 -43 386 -162 480 -347 21 -42 44 -103
50 -135 17 -77 7 -254 -16 -313 -40 -102 -115 -188 -204 -236 -55 -30 -262
-27 -350 5 -76 27 -214 117 -249 162 -39 49 -71 141 -77 222 -11 127 25 227
111 306 58 53 84 63 168 63 78 -1 150 -29 209 -81 133 -117 63 -331 -109 -331
-85 0 -153 40 -153 90 0 27 30 62 64 74 35 12 82 -12 92 -46 18 -61 55 -62 98
-5 27 37 27 117 0 155 -46 63 -204 111 -274 82 -122 -51 -197 -330 -122 -452
73 -118 236 -188 442 -191 100 -2 107 -1 160 29 64 36 101 84 132 174 20 55
23 85 23 200 l0 135 -38 70 c-77 145 -210 247 -382 290 -118 30 -193 31 -304
5 -135 -33 -254 -102 -392 -229 -87 -79 -154 -178 -242 -358 -117 -239 -183
-459 -229 -763 -17 -112 -17 -531 0 -625 7 -38 21 -124 33 -190 21 -125 22
-130 65 -260 55 -170 164 -343 338 -540 39 -44 168 -179 288 -299 120 -121
218 -223 218 -228 0 -19 -34 -5 -107 46 -43 30 -114 76 -158 102 -367 215
-690 516 -798 743 -44 90 -41 215 7 308 39 78 47 170 56 638 9 491 2 435 98
755 89 296 167 456 307 630 101 124 190 198 399 326 197 121 365 293 448 459
53 105 72 183 71 290 0 88 -4 112 -36 204 -40 115 -76 162 -172 225 -89 58
-137 71 -260 71 -104 -1 -114 -3 -178 -34 -84 -41 -169 -122 -202 -193 -26
-57 -34 -144 -15 -192 18 -48 78 -102 151 -136 64 -29 78 -32 136 -27 52 4 72
11 101 34 49 40 61 73 38 107 -19 30 -42 33 -67 10 -27 -25 -78 -21 -100 7
-41 52 -29 104 31 129 42 17 87 4 137 -43 73 -67 89 -117 58 -190 -38 -91
-201 -134 -338 -90 -139 44 -209 130 -211 258 -2 146 72 270 216 361 96 61
232 80 353 49z m5310 -360 c97 -26 196 -101 243 -186 30 -54 55 -149 48 -183
-11 -55 -54 -106 -109 -132 -71 -33 -175 -33 -232 -1 -45 26 -92 88 -101 134
-6 28 -2 37 26 63 40 37 78 39 114 5 24 -23 27 -32 24 -73 -3 -26 -8 -55 -12
-65 -7 -13 -1 -20 27 -32 31 -13 40 -13 79 1 59 20 86 40 108 77 26 43 25 81
-6 147 -57 123 -133 165 -299 165 -143 0 -200 -21 -275 -102 -86 -92 -111
-150 -117 -275 -13 -256 43 -415 225 -640 211 -262 278 -444 303 -833 20 -307
1 -569 -51 -715 -4 -14 -21 -65 -36 -115 -41 -137 -104 -288 -193 -459 -93
-180 -161 -285 -229 -353 -161 -162 -705 -593 -748 -593 -21 0 -24 16 -6 33 9
9 51 43 92 76 148 117 329 309 415 441 93 142 158 307 174 439 9 74 36 107 79
96 33 -8 115 -72 124 -97 5 -11 13 -18 20 -16 34 12 140 240 207 446 80 243
111 419 111 625 0 432 -121 781 -349 1008 -90 89 -134 120 -259 183 -112 56
-206 72 -378 62 -189 -10 -306 -61 -433 -185 -86 -85 -137 -164 -175 -271 -30
-83 -31 -89 -30 -265 2 -200 13 -264 66 -372 69 -141 243 -251 425 -268 180
-17 342 55 450 198 78 103 106 181 104 291 -3 136 -56 246 -145 300 -43 27
-58 31 -125 31 -65 0 -83 -4 -123 -27 -83 -49 -138 -140 -138 -229 0 -66 23
-81 115 -77 l68 3 -47 47 c-63 64 -60 117 8 134 86 21 136 -27 136 -130 0 -77
-22 -116 -85 -146 -86 -42 -195 -8 -269 83 -27 34 -31 46 -30 100 0 105 75
213 183 263 48 23 73 28 171 32 106 4 119 2 167 -20 109 -51 203 -219 203
-363 0 -175 -83 -341 -224 -444 -70 -51 -152 -88 -238 -108 -166 -37 -421 37
-551 162 -175 166 -243 423 -182 690 21 92 61 208 97 282 45 92 184 231 290
291 87 50 218 82 333 82 93 0 237 -24 329 -55 41 -14 84 -25 96 -25 20 0 22 4
16 33 -54 289 -54 443 -1 568 51 119 202 230 359 264 81 18 92 18 161 0z
m-5457 -2539 c15 -8 39 -27 53 -43 60 -65 65 -115 16 -159 -77 -68 -156 -248
-196 -449 -56 -280 -55 -487 5 -733 14 -57 24 -108 22 -113 -5 -14 -79 94
-115 166 -73 144 -148 371 -173 520 -8 42 -8 38 -5 -30 8 -151 60 -344 144
-533 40 -91 49 -122 33 -122 -19 0 -233 268 -314 395 -115 179 -180 405 -181
635 -1 151 14 193 97 274 79 78 170 105 236 71 42 -22 45 -49 16 -147 -14 -47
-27 -115 -31 -150 -3 -34 -8 -82 -11 -105 -3 -27 -1 -43 5 -43 6 0 11 15 11
33 0 19 9 67 19 108 55 210 145 359 250 414 53 28 81 31 119 11z m490 -122
c30 -21 82 -113 82 -146 0 -30 -47 -83 -96 -108 -244 -124 -421 -349 -490
-625 -14 -56 -17 -109 -16 -262 1 -174 -5 -225 -21 -175 -3 9 -15 44 -27 77
-51 148 -48 574 5 784 58 224 189 400 342 455 55 20 193 20 221 0z m3802 -161
c53 -19 105 -64 130 -113 21 -41 40 -134 40 -196 0 -93 -47 -290 -97 -404 -84
-195 -168 -339 -290 -502 -74 -98 -93 -114 -93 -79 0 24 36 143 60 196 38 88
70 174 92 255 20 74 23 109 23 260 0 201 -6 230 -87 400 -57 118 -57 140 0
173 68 40 132 42 222 10z m496 -36 c119 -74 138 -328 40 -533 -121 -256 -438
-619 -651 -746 -61 -36 -162 -75 -172 -65 -6 6 45 83 87 130 64 74 234 317
266 382 45 90 135 380 148 475 3 25 2 79 -4 120 -6 41 -13 103 -17 137 -6 61
-5 63 26 92 37 35 60 40 161 37 61 -2 83 -7 116 -29z m-3906 -79 c47 -17 78
-36 112 -69 81 -81 88 -176 21 -306 -44 -88 -59 -95 -157 -75 -39 7 -127 14
-196 15 l-126 2 -66 -43 c-91 -59 -204 -181 -264 -283 -58 -99 -72 -139 -84
-257 -13 -113 -30 -184 -43 -179 -24 8 -50 82 -59 169 -11 115 5 355 32 480
57 260 278 490 540 560 84 23 201 17 290 -14z m3081 -9 c142 -78 203 -375 143
-694 -22 -115 -50 -195 -113 -325 l-56 -115 -6 240 c-7 255 -14 298 -69 405
-51 100 -145 193 -243 240 -59 29 -68 51 -42 112 29 72 98 131 185 159 47 16
154 4 201 -22z m-433 -290 c36 -7 85 -20 108 -31 53 -23 136 -114 200 -220 56
-94 63 -130 63 -358 1 -164 -6 -219 -26 -227 -25 -10 -34 11 -43 98 -20 199
-183 411 -340 444 -65 14 -138 55 -159 89 -31 49 -28 119 4 152 23 23 98 63
119 64 5 0 39 -5 74 -11z m-2703 -189 c74 -25 101 -38 143 -69 37 -27 72 -87
72 -124 0 -57 -85 -170 -138 -184 -13 -3 -49 4 -80 15 -133 48 -215 64 -287
60 -122 -9 -240 -83 -312 -196 -32 -49 -57 -71 -68 -60 -7 6 21 128 46 207 43
136 141 242 287 313 48 23 105 47 127 55 50 16 132 10 210 -17z m2751 -205
c94 -48 100 -53 131 -109 44 -82 74 -202 80 -316 5 -101 -4 -133 -30 -112 -8
7 -18 27 -21 45 -8 40 -82 141 -138 185 -52 42 -145 87 -213 103 -27 7 -66 16
-85 20 -106 26 -129 82 -64 157 55 64 96 83 175 79 57 -2 81 -10 165 -52z
m-2932 -181 c161 -41 256 -87 323 -156 57 -59 83 -113 83 -170 0 -68 -13 -94
-84 -163 -77 -75 -131 -96 -205 -76 -73 20 -127 59 -151 112 -36 77 -16 110
39 63 56 -47 137 -28 186 43 29 43 31 72 10 113 -21 41 -63 60 -135 60 -63 0
-107 -16 -147 -53 -21 -18 -23 -30 -23 -109 0 -103 19 -153 78 -210 95 -93
193 -106 326 -44 43 20 86 36 95 36 23 -1 161 -216 161 -253 0 -38 -180 -59
-316 -37 -223 36 -486 173 -586 305 -69 92 -83 129 -83 230 0 103 15 147 74
209 99 105 211 137 355 100z m-1374 -100 c211 -214 505 -425 795 -573 102 -52
186 -113 173 -126 -7 -8 -143 12 -288 41 -325 65 -656 222 -795 376 -79 88
-120 191 -95 239 13 25 110 129 120 129 3 0 44 -39 90 -86z m4136 36 c40 -5
90 -19 112 -30 55 -29 138 -119 167 -182 77 -166 53 -263 -102 -413 -67 -64
-119 -92 -215 -115 -242 -58 -479 8 -562 156 -32 57 -32 63 -1 124 31 60 62
81 82 54 7 -10 13 -25 13 -35 0 -24 83 -97 136 -119 58 -25 124 -25 173 0 115
58 155 140 115 236 -23 55 -52 84 -86 84 -55 0 -87 -60 -88 -160 0 -47 -17
-106 -36 -125 -38 -38 -132 -1 -167 65 -20 39 -20 148 1 185 6 11 19 38 29 60
23 54 117 147 181 179 42 21 111 40 167 45 6 0 42 -4 81 -9z m760 -341 c-32
-47 -116 -79 -116 -46 0 27 64 64 113 66 17 1 17 -1 3 -20z m-4988 -79 c20
-11 66 -41 102 -66 130 -91 321 -168 530 -214 205 -46 236 -54 278 -71 97 -42
35 -52 -252 -44 -339 10 -531 39 -638 99 -156 86 -196 191 -109 285 34 37 40
37 89 11z"/>
<path d="M12129 13193 c-13 -17 -13 -17 6 -3 11 8 22 16 24 17 2 2 0 3 -6 3
-6 0 -17 -8 -24 -17z"/>
<path d="M12088 13173 c7 -3 16 -2 19 1 4 3 -2 6 -13 5 -11 0 -14 -3 -6 -6z"/>
<path d="M9163 3025 c-18 -8 -42 -29 -53 -47 -19 -32 -20 -49 -20 -575 l0
-543 120 0 120 0 0 375 c0 206 3 375 8 375 4 0 171 -165 372 -366 201 -201
377 -372 392 -380 58 -30 128 -9 164 50 18 29 19 63 22 574 l3 542 -126 0
-125 0 0 -376 0 -376 -375 369 c-207 202 -388 373 -403 380 -35 16 -60 15 -99
-2z"/>
<path d="M2790 2439 l0 -580 388 3 c366 4 391 5 453 26 180 60 324 218 373
408 18 72 21 219 5 296 -32 155 -152 308 -291 372 -115 53 -145 56 -553 56
l-375 0 0 -581z m804 302 c65 -33 113 -82 145 -150 22 -47 26 -70 26 -146 0
-76 -4 -99 -26 -145 -37 -78 -71 -114 -141 -149 l-61 -31 -249 0 -248 0 0 326
0 325 253 -3 c244 -3 254 -4 301 -27z"/>
<path d="M4120 2440 l0 -580 520 0 521 0 -3 128 -3 127 -392 3 -393 2 0 325 0
325 395 0 395 0 0 125 0 125 -520 0 -520 0 0 -580z"/>
<path d="M5280 2440 l0 -580 125 0 125 0 0 580 0 580 -125 0 -125 0 0 -580z"/>
<path d="M5670 2440 l0 -580 495 0 496 0 -3 128 -3 127 -367 3 -368 2 0 450 0
450 -125 0 -125 0 0 -580z"/>
<path d="M6502 2898 l3 -123 208 -3 207 -2 0 -455 0 -455 125 0 125 0 2 453 3
452 208 3 207 2 0 125 0 125 -545 0 -546 0 3 -122z"/>
<path d="M8008 3004 c-190 -45 -348 -205 -393 -395 -19 -81 -19 -226 0 -306
46 -194 195 -358 380 -416 64 -20 90 -22 300 -22 254 0 292 6 410 68 138 73
250 234 280 402 18 100 18 140 0 240 -38 216 -192 379 -406 430 -86 20 -487
20 -571 -1z m564 -267 c69 -34 121 -91 149 -166 17 -46 20 -72 17 -141 -7
-140 -62 -229 -173 -282 l-60 -28 -211 0 -211 0 -61 31 c-70 35 -104 71 -141
149 -22 47 -26 69 -25 145 0 126 42 214 127 271 74 49 105 54 327 51 202 -2
206 -2 262 -30z"/>
<path d="M10860 2440 l0 -580 125 0 125 0 0 456 0 455 314 -3 c300 -3 316 -4
342 -24 52 -39 68 -70 72 -142 4 -83 -22 -134 -83 -166 -37 -19 -59 -21 -302
-24 l-263 -3 0 -120 0 -119 278 0 c227 0 288 3 333 16 181 54 289 208 289 414
0 207 -96 343 -281 401 -56 17 -98 19 -505 19 l-444 0 0 -580z"/>
<path d="M12162 2443 l3 -578 520 0 520 0 0 125 0 125 -392 3 -393 2 0 325 0
325 393 2 392 3 3 123 3 122 -526 0 -525 0 2 -577z"/>
<path d="M13310 2439 l0 -580 388 3 c366 4 391 5 453 26 180 60 324 218 373
408 18 72 21 219 5 296 -32 155 -152 308 -291 372 -115 53 -145 56 -553 56
l-375 0 0 -581z m804 302 c65 -33 113 -82 145 -150 22 -47 26 -70 26 -146 0
-76 -4 -99 -26 -145 -37 -78 -71 -114 -141 -149 l-61 -31 -249 0 -248 0 0 326
0 325 253 -3 c244 -3 254 -4 301 -27z"/>
<path d="M14640 2440 l0 -580 125 0 125 0 0 455 0 455 303 0 c167 0 317 -4
336 -10 82 -23 125 -115 102 -219 -13 -63 -34 -97 -75 -119 -27 -15 -70 -17
-308 -20 l-278 -3 0 -115 0 -114 215 0 214 0 138 -154 138 -155 179 0 178 -1
-150 158 c-82 86 -159 165 -170 176 -21 18 -21 18 38 73 140 129 177 347 93
536 -33 74 -121 157 -200 189 -58 23 -62 23 -530 26 l-473 3 0 -581z"/>
<path d="M16375 3001 c-128 -37 -231 -109 -299 -209 -197 -289 -95 -718 207
-867 116 -57 189 -67 427 -62 174 3 215 7 271 25 162 53 301 190 359 355 28
77 38 264 20 350 -40 197 -205 365 -401 412 -97 22 -502 20 -584 -4z m570
-261 c102 -50 162 -141 172 -261 12 -146 -49 -266 -167 -327 l-64 -33 -220 3
c-212 3 -223 4 -269 28 -98 50 -157 145 -165 266 -11 166 62 287 201 336 45
16 80 18 257 15 195 -2 207 -3 255 -27z"/>
<path d="M4450 2450 l0 -110 335 0 335 0 0 110 0 110 -335 0 -335 0 0 -110z"/>
<path d="M12492 2453 l3 -108 335 0 335 0 3 108 3 107 -341 0 -341 0 3 -107z"/>
</g>
</svg>
